<?xml version="1.0" encoding="UTF-8"?>
<svg id="Capa_1" data-name="Capa 1" xmlns="http://www.w3.org/2000/svg" xmlns:xlink="http://www.w3.org/1999/xlink" viewBox="0 0 1329.53 794.33">
  <defs>
    <style>
      .cls-1 {
        fill: #fff;
        stroke-width: 10.08px;
      }

      .cls-1, .cls-2, .cls-3 {
        stroke: #fff;
        stroke-miterlimit: 10;
      }

      .cls-2 {
        fill: #0c0c75;
      }

      .cls-2, .cls-3 {
        stroke-width: 9.98px;
      }

      .cls-3 {
        fill: #66667d;
      }

      .cls-4 {
        fill: url(#Degradado_sin_nombre_88);
      }
    </style>
    <linearGradient id="Degradado_sin_nombre_88" data-name="Degradado sin nombre 88" x1="695.24" y1="757.2" x2="695.24" y2="108.14" gradientUnits="userSpaceOnUse">
      <stop offset="0" stop-color="#666"/>
      <stop offset=".22" stop-color="#646464"/>
      <stop offset=".3" stop-color="#5d5d5d"/>
      <stop offset=".36" stop-color="#515151"/>
      <stop offset=".41" stop-color="#404040"/>
      <stop offset=".45" stop-color="#292929"/>
      <stop offset=".49" stop-color="#0e0e0e"/>
      <stop offset=".5" stop-color="#000"/>
    </linearGradient>
  </defs>
  <path class="cls-4" d="m809.59,108.14l-58.27,120.47c37.87-9.53,65.91-43.83,65.91-84.67,0-12.75-2.74-24.87-7.63-35.8Zm39.59,285.51c0-24.6-3.34-43.23-9.98-55.88-7.98-17.29-29.94-26.59-65.86-27.94h-61.32l-70.85,146.68h31.38v108.77c-24.8,10.15-52.24,15.99-82.27,17.54-3.67.75-7.36,1.42-11.1,2.02l-20.91,43.31c-11.33,22.63-16.96,39.59-16.96,50.89,0,23.95,19.28,45.25,57.88,63.86,13.67,6.84,25.6,11.6,35.75,14.29,18.66-2.17,36.37-5.39,53.11-9.63,6.49-5.31,11.3-10.55,14.42-15.64,3.64-5.99,8.81-15.62,15.47-28.94l51.89-107.77h79.35v-147.68h-7.51l7.51-15.59v-38.29Z"/>
  <path class="cls-2" d="m1163.98,670.31v-37.42h-32.43v37.42h-48.05l-37.27-75.09-197.05.05c-.2,0-1.35.02-3.24.02-.42-.05-60.72-.07-61.14-.07-40.81,0-73.89-34.53-73.89-75.34,0-35.72,25.32-65.51,59-72.39h79.28l125.21.05-66.86-136.71-58.35,118.62v-35.8c0-24.6-3.34-43.23-9.98-55.88-7.98-17.29-29.94-26.59-65.86-27.94h-61.32l.72-1.5,8.68-17.96,29.89-61.77c37.87-9.53,65.91-43.83,65.91-84.67v-.97c-.15-12.4-2.87-24.17-7.63-34.83l.35-.7,48.7-100.71h97.29l299.78,617.17c.05.1,66.91,136.13,66.93,136.21h-66.36v-89.81h-92.3Z"/>
  <path class="cls-3" d="m710.9,521.38c0,40.81,33.08,73.89,73.89,73.89,1.02,0,28.64.05,47.37.05,5.79,0,10.73,0,13.77-.02,1.1.07,2.17.25,3.24.17v16.22c0,21.3-9.33,41.59-27.94,60.87-1.72,1.77-3.47,3.52-5.24,5.24h-88.58v55.86c-12.47,4.84-25.57,8.98-39.37,12.42-16.74,4.24-34.45,7.46-53.11,9.63-20.56,2.44-42.26,3.67-65.16,3.67-99.14,0-185.28-37.42-258.44-112.26-73.19-74.84-109.76-165.15-109.76-270.92s37.24-194.08,111.76-264.93C387.82,40.41,475.63,4.99,576.76,4.99c70.32,0,137.16,22.2,200.54,63.86l-.1.17c14.09,9.11,25.42,22.18,32.38,37.62.12.27.22.52.35.8,4.66,10.7,7.28,22.55,7.28,35v.52c-.25,40.61-28.21,74.66-65.91,84.14-6.86,1.72-14.02,2.64-21.4,2.64-16.29,0-31.53-4.47-44.58-12.22l-.07.12c-4.34-2.59-8.91-5.46-13.7-8.61-27.94-18.29-61.22-27.44-99.79-27.44-50.57,0-95.47,17.81-134.71,53.39-39.27,35.6-58.87,82.17-58.87,139.7s19.96,106.45,59.87,146.68c39.91,40.26,85.14,60.37,135.71,60.37,5.59,0,11.1-.15,16.51-.42,30.04-1.55,57.48-7.38,82.27-17.54v-108.77h-78.61c-40.81,0-73.89-31.96-73.89-72.79s32.95-73.77,73.67-73.89h179.61c35.92,1.35,57.88,10.65,65.86,27.94,6.64,12.65,9.98,31.28,9.98,55.88v55.13l-19.41.2h-44.98c-40.81,0-73.89,33.08-73.89,73.89Z"/>
  <path class="cls-2" d="m540.69,674.25c0,47.62-38.62,86.24-86.24,86.24-.47,0-.95,0-1.42-.02v.4H4.99V6.74h176.1l.52,581.1h271.42v.17c.47-.02.95-.02,1.42-.02,47.62,0,86.24,38.62,86.24,86.26Z"/>
  <circle class="cls-1" cx="781.05" cy="519.38" r="12.47"/>
  <circle class="cls-1" cx="456.21" cy="671.2" r="12.47"/>
  <g>
    <path d="m782.67,684.31c6.87,0,12.28,1.05,16.24,3.14,3.96,2.1,6.64,5.65,8.03,10.65,2.1-9.2,8.73-13.8,19.91-13.8h9.78c8.85,0,15.28,1.75,19.3,5.24,4.02,3.49,6.02,9.66,6.02,18.51v84.69h-21.13v-88.88c0-1.63-.76-2.45-2.27-2.45h-28.12c-1.51,0-2.27.82-2.27,2.45l-.17.7c.11,1.17.17,2.33.17,3.49v84.69h-21.3v-88.88c0-1.63-.76-2.45-2.27-2.45h-28.46c-1.51,0-2.27.82-2.27,2.45l.35,88.88h-21.3l-.17-106.87h18.86l1.57,10.83c2.33-8.26,8.79-12.4,19.38-12.4h10.13Z"/>
    <path d="m911.02,793.98c-10.59,0-18.25-2.04-22.96-6.11-4.71-4.07-7.07-10.94-7.07-20.61v-57.45c0-9.66,2.04-16.33,6.11-19.99,4.07-3.67,11.06-5.5,20.96-5.5h21.48c10.01,0,17.14,1.83,21.39,5.5,4.25,3.67,6.37,10.33,6.37,19.99v41.74h-55.01v22.35c0,1.51.76,2.27,2.27,2.27h49.94v17.81h-43.48Zm-6.46-92.55c-1.51,0-2.27.82-2.27,2.45v32.31h33.88v-32.31c0-1.63-.76-2.45-2.27-2.45h-29.34Z"/>
    <path d="m1029.41,702.47h-24.97v70.2c0,1.51.76,2.27,2.27,2.27h22.7v17.81h-16.24c-10.48,0-18.07-2.04-22.79-6.11-4.71-4.07-7.07-10.88-7.07-20.43v-63.74h-12.57v-16.59h12.57v-27.24h21.13v27.24h24.97v16.59Z"/>
    <path d="m1062.07,794.33c-8.73,0-15.11-1.72-19.12-5.15-4.02-3.43-6.02-9.57-6.02-18.42v-15.72c0-9.31,2.12-15.8,6.37-19.47,4.25-3.67,11.32-5.5,21.22-5.5h27.42v-24.27c0-1.51-.76-2.27-2.27-2.27l-46.28.17v-17.99h41.56c10.01-.12,17.23,1.78,21.65,5.67,4.42,3.9,6.64,10.68,6.64,20.34v81.03h-19.03l-1.75-12.05c-.93,4.54-2.94,7.95-6.02,10.21-3.09,2.27-7.48,3.41-13.18,3.41h-11.18Zm29.86-17.11v-31.78h-31.78c-1.51,0-2.27.76-2.27,2.27v27.07c0,1.63.76,2.44,2.27,2.44h31.78Z"/>
    <path d="m1136.63,792.75v-147.03h21.3v147.03h-21.3Z"/>
    <path d="m1180.29,793.28l-.17-17.11h47.15c1.63,0,2.45-.75,2.45-2.27v-24.62c0-1.63-.82-2.45-2.45-2.45h-21.13c-10.01,0-17.14-1.83-21.39-5.5-4.25-3.67-6.37-10.16-6.37-19.47v-11.53c0-9.66,2.24-16.44,6.72-20.34,4.48-3.9,11.67-5.79,21.57-5.68h38.42v17.81l-42.96-.17c-1.51,0-2.27.82-2.27,2.44v23.4c0,1.63.76,2.45,2.27,2.45h20.96c10.01,0,17.11,1.78,21.3,5.33,4.19,3.55,6.29,10.04,6.29,19.47v14.67c0,8.85-2.01,14.99-6.02,18.42-4.02,3.44-10.45,5.15-19.3,5.15h-45.05Z"/>
  </g>
</svg>